<?xml version="1.0" standalone="no"?>
<!DOCTYPE svg PUBLIC "-//W3C//DTD SVG 20010904//EN"
 "http://www.w3.org/TR/2001/REC-SVG-20010904/DTD/svg10.dtd">
<svg version="1.0" xmlns="http://www.w3.org/2000/svg"
 width="700.000000pt" height="700.000000pt" viewBox="0 0 700.000000 700.000000"
 preserveAspectRatio="xMidYMid meet">
<metadata>
Created by potrace 1.11, written by Peter Selinger 2001-2013
</metadata>
<g transform="translate(0.000000,700.000000) scale(0.100000,-0.100000)"
fill="#000000" stroke="none">
<path d="M3280 6994 c-450 -41 -777 -119 -1135 -271 -1000 -422 -1758 -1296
-2030 -2338 -81 -310 -109 -535 -110 -880 0 -322 26 -557 96 -843 280 -1153
1128 -2082 2251 -2467 829 -284 1733 -254 2523 83 451 193 839 468 1193 846
811 867 1121 2119 812 3281 -264 995 -981 1840 -1927 2274 -326 149 -683 250
-1043 296 -119 16 -533 28 -630 19z m580 -479 c553 -63 1076 -282 1530 -643
128 -102 388 -363 490 -492 633 -799 826 -1846 518 -2810 -320 -1003 -1168
-1781 -2213 -2030 -250 -60 -382 -74 -700 -74 -312 -1 -410 8 -645 60 -1202
267 -2123 1235 -2334 2454 -34 197 -41 281 -40 530 1 273 13 397 60 624 96
454 297 883 585 1248 101 127 362 389 489 489 513 405 1109 628 1770 663 107
6 357 -4 490 -19z"/>
<path d="M3821 6269 c-13 -5 -30 -17 -37 -27 -11 -14 -13 -516 -14 -2764 0
-1722 4 -2756 10 -2772 5 -14 21 -33 35 -42 25 -16 35 -17 173 -1 238 26 466
94 704 211 831 407 1525 1276 1654 2071 21 130 24 397 5 462 -22 77 20 73
-688 73 -413 0 -641 -4 -659 -10 -52 -20 -53 -26 -54 -296 0 -249 0 -251 23
-272 23 -22 29 -22 314 -22 299 0 344 -5 363 -40 16 -30 12 -58 -26 -169 -136
-398 -466 -815 -855 -1079 -92 -63 -294 -162 -330 -162 -15 0 -38 9 -53 21
l-26 20 0 1857 0 1857 24 51 c38 82 103 121 217 131 52 4 74 2 110 -14 78 -35
249 -173 420 -339 210 -205 234 -219 375 -218 94 0 107 3 167 32 107 53 155
137 144 255 -7 73 -37 120 -175 273 -397 440 -1030 803 -1555 893 -146 25
-236 32 -266 20z"/>
<path d="M3009 6250 c-339 -68 -679 -199 -953 -368 -170 -104 -407 -290 -434
-340 -8 -13 -16 -57 -19 -97 -5 -63 -2 -79 19 -127 46 -101 142 -149 292 -149
115 1 172 18 264 80 82 56 166 91 217 91 75 0 212 -76 235 -130 7 -17 10 -540
8 -1725 l-3 -1700 -28 -57 c-45 -92 -132 -138 -231 -124 -58 9 -169 63 -236
116 -86 68 -286 267 -357 355 -240 299 -395 662 -467 1098 -33 196 -9 182
-305 182 l-239 0 -27 -25 -27 -25 5 -120 c16 -312 101 -620 263 -950 344 -703
940 -1224 1674 -1464 116 -38 229 -64 380 -90 130 -22 171 -15 190 34 7 17 10
975 10 2766 l0 2740 -25 24 c-29 30 -77 31 -206 5z"/>
</g>
</svg>
