<?xml version="1.0" encoding="utf-8"?>
<!-- Generator: Adobe Illustrator 19.0.0, SVG Export Plug-In . SVG Version: 6.00 Build 0)  -->
<svg version="1.1" id="Layer_1" xmlns="http://www.w3.org/2000/svg" xmlns:xlink="http://www.w3.org/1999/xlink" x="0px" y="0px"
	 viewBox="-182 368.6 246.9 56.4" style="enable-background:new -182 368.6 246.9 56.4;" xml:space="preserve">
<style type="text/css">
	.st0{fill:#DD4B91;}
	.st1{fill:#C21E65;}
	.st2{fill:#B4202C;}
	.st3{fill:#9A2020;}
	.st4{fill:#EC6D24;}
	.st5{fill:#E0AA26;}
	.st6{fill:#F6BA18;}
	.st7{fill:#DC4842;}
	.st8{fill:#C72732;}
	.st9{fill:#EF5D77;}
	.st10{fill:#D02031;}
	.st11{fill:#8E1829;}
	.st12{fill:#419ED8;}
	.st13{fill:#59BADD;}
	.st14{fill:#95D5F0;}
	.st15{fill:#CCEBF7;}
	.st16{fill:#1754A5;}
	.st17{fill:#0065A8;}
	.st18{fill:#078CC6;}
	.st19{fill:#3E9DD7;}
	.st20{fill:#D33F3E;}
	.st21{fill:#43A948;}
	.st22{fill:#9ACA3C;}
	.st23{fill:#0265A9;}
	.st24{fill:#0D8CC6;}
	.st25{fill:#9FC23B;}
	.st26{fill:#FFFFFF;}
	.st27{fill:#FAFAFA;}
	.st28{fill:#991F5F;}
	.st29{fill:#DA499A;}
	.st30{fill:#1FA7E0;}
	.st31{fill:#1C9BD4;}
	.st32{fill:#B82444;}
	.st33{fill:#9A247F;}
	.st34{fill:#F8C015;}
	.st35{fill:#F99B1C;}
	.st36{fill:#CEDF69;}
</style>
<g id="XMLID_478_">
	<path id="XMLID_475_" class="st0" d="M-108.4,404.9h5.8v-25.5h9.7v-5.3c-8.9,0-16.4,0-25.3,0v5.3h9.7L-108.4,404.9L-108.4,404.9z"
		/>
	<path id="XMLID_472_" class="st0" d="M-78.2,386.3c-1.2-2.2-4-3.5-6.9-3.5c-6.3,0-11.3,3.9-11.3,11.3c0,7.6,4.7,11.5,11.2,11.5
		c2.4,0,5.8-1.3,7-3.8l0.3,3.2h5v-21.7H-78L-78.2,386.3L-78.2,386.3z M-84.6,387.5c8.4,0,8.4,13.1,0,13.1c-3.6,0-6.4-2.5-6.4-6.6
		C-91,390-88.2,387.5-84.6,387.5z"/>
	<path id="XMLID_471_" class="st0" d="M-67.1,377.7v5.6h-4v4.6h4v9.4c0,5.4,3.1,8.1,7.8,7.9c1.6,0,2.9-0.3,4.4-0.9l-1.5-4.6
		c-0.8,0.4-1.8,0.7-2.6,0.7c-1.7,0-2.8-1-2.8-3.1v-9.4h6v-4.6h-6v-6.1L-67.1,377.7z"/>
	<path id="XMLID_470_" class="st0" d="M-49.6,377.7v5.6h-4v4.6h4v9.4c0,5.4,3.1,8.1,7.8,7.9c1.6,0,2.9-0.3,4.4-0.9l-1.5-4.6
		c-0.8,0.4-1.8,0.7-2.6,0.7c-1.7,0-2.8-1-2.8-3.1v-9.4h6v-4.6h-6v-6.1L-49.6,377.7z"/>
	<path id="XMLID_467_" class="st1" d="M-10,390.2l-17.4,7c0.9,1.4,2,2.4,3.5,2.9s3,0.4,4.7-0.3c2-0.8,3.5-2.2,4.3-4.2l5.4,0.3
		c-0.5,2.1-1.4,3.8-2.6,5.2c-1.3,1.4-3,2.6-5.2,3.4c-3.4,1.4-6.6,1.4-9.6,0.1c-3-1.3-5.1-3.5-6.4-6.7c-1.3-3.3-1.4-6.5-0.1-9.5
		c1.2-3,3.5-5.2,6.7-6.5c3.4-1.4,6.6-1.4,9.6-0.1c3,1.3,5.2,3.7,6.7,7.3L-10,390.2L-10,390.2z M-17.1,388.2c-0.8-1-1.9-1.7-3.3-2
		c-1.4-0.3-2.7-0.2-4.1,0.4c-1.5,0.6-2.7,1.6-3.5,2.9c-0.5,0.8-0.8,2-0.9,3.5L-17.1,388.2z"/>
	<path id="XMLID_464_" class="st1" d="M11.8,381.6h5.8v23.3h-5.8v-2.5c-1.1,1.1-2.3,1.9-3.4,2.3c-1.1,0.5-2.4,0.7-3.7,0.7
		c-3,0-5.6-1.2-7.8-3.5c-2.2-2.3-3.3-5.2-3.3-8.7c0-3.6,1.1-6.5,3.2-8.8c2.1-2.3,4.7-3.4,7.8-3.5c1.4,0,2.7,0.3,3.9,0.8
		s2.4,1.3,3.4,2.3L11.8,381.6L11.8,381.6z M5.6,386.4c-1.8,0-3.3,0.6-4.5,1.9c-1.2,1.3-1.8,2.9-1.8,4.9s0.6,3.7,1.8,5
		c1.2,1.3,2.7,1.9,4.5,1.9s3.4-0.6,4.6-1.9c1.2-1.3,1.8-3,1.8-5s-0.6-3.7-1.8-4.9C9,387,7.5,386.4,5.6,386.4z"/>
	<path id="XMLID_463_" class="st1" d="M37.8,384.9l-3.6,3.6c-1.5-1.5-2.8-2.2-4-2.2c-0.7,0-1.2,0.1-1.5,0.4c-0.4,0.3-0.6,0.6-0.6,1
		c0,0.3,0.1,0.6,0.4,0.9c0.2,0.3,0.8,0.6,1.7,1.1l2.1,1.1c2.3,1.1,3.8,2.2,4.6,3.4c0.8,1.2,1.3,2.5,1.3,4.1c0,2.1-0.8,3.8-2.3,5.2
		s-3.6,2.1-6.1,2.1c-3.4,0-6.1-1.3-8.1-4l3.6-3.9c0.7,0.8,1.5,1.4,2.4,1.9s1.7,0.7,2.5,0.7s1.4-0.2,1.9-0.6c0.5-0.4,0.7-0.8,0.7-1.3
		c0-0.9-0.8-1.8-2.6-2.6l-2-1c-3.8-1.9-5.7-4.3-5.7-7.1c0-1.8,0.7-3.4,2.1-4.7c1.4-1.3,3.2-2,5.4-2c1.5,0,2.9,0.3,4.3,1
		C35.7,382.7,36.9,383.7,37.8,384.9z"/>
	<polygon id="XMLID_462_" class="st1" points="40.2,381.6 46.2,381.6 52.3,396.2 59,381.6 64.9,381.6 50.4,413.4 44.4,413.4 
		49.1,403.2 	"/>
	<g id="XMLID_13_">
		<g id="XMLID_401_">
			<g id="XMLID_459_">
				<polygon id="XMLID_461_" class="st2" points="-165.4,394.6 -160.5,394.6 -154.7,409.7 				"/>
				<polygon id="XMLID_460_" class="st3" points="-154.7,409.7 -160.5,394.6 -155.5,394.7 				"/>
			</g>
			<polygon id="XMLID_458_" class="st4" points="-127.1,380.4 -149.4,376 -128.7,375.7 -127,380.2 			"/>
			<polygon id="XMLID_457_" class="st5" points="-128.7,375.7 -149.4,376 -140.9,368.6 			"/>
			<polygon id="XMLID_456_" class="st6" points="-140.9,368.6 -149.4,376 -156.2,371.8 			"/>
			<polygon id="XMLID_455_" class="st7" points="-149.4,376 -127.1,380.4 -127.2,386 -130.1,382.8 			"/>
			<polygon id="XMLID_454_" class="st8" points="-149.4,376 -130.1,382.8 -135.4,384.9 			"/>
			<polygon id="XMLID_453_" class="st9" points="-149.4,376 -135.4,384.9 -135.6,388.9 			"/>
			<polygon id="XMLID_452_" class="st10" points="-149.4,376 -135.6,388.9 -141,391.6 			"/>
			<polygon id="XMLID_451_" class="st11" points="-141,391.6 -135.6,388.9 -132.8,396.1 -140.8,391.9 			"/>
			<polygon id="XMLID_450_" class="st2" points="-132.8,396.1 -135.6,388.9 -132,391.3 			"/>
			<polygon id="XMLID_449_" class="st12" points="-132.8,396.1 -132,391.3 -126,396.6 			"/>
			<polygon id="XMLID_448_" class="st13" points="-126,396.6 -132,391.3 -128.1,389.5 			"/>
			<polygon id="XMLID_447_" class="st14" points="-126,396.6 -128.1,389.5 -124.2,388 			"/>
			<polygon id="XMLID_446_" class="st15" points="-124.2,388 -128.1,389.5 -127.2,386 			"/>
			<polygon id="XMLID_445_" class="st9" points="-124.2,388 -127.2,386 -127.1,380.4 -127,380.4 			"/>
			<polygon id="XMLID_444_" class="st16" points="-149.4,376 -141,391.6 -141.2,391.7 -161.8,376.3 			"/>
			<polygon id="XMLID_443_" class="st17" points="-161.8,376.3 -141.2,391.7 -143.6,395 -162.3,376.5 			"/>
			<polygon id="XMLID_442_" class="st18" points="-162.3,376.5 -143.6,395 -148.6,394.9 -155.5,390.6 			"/>
			<polygon id="XMLID_441_" class="st19" points="-162.3,376.5 -155.5,390.6 -171.9,380.5 			"/>
			<polygon id="XMLID_440_" class="st20" points="-171.9,380.5 -155.5,390.6 -153.5,394.8 -173.1,394.5 -172.1,380.8 			"/>
			<polygon id="XMLID_439_" class="st17" points="-153.5,394.8 -155.5,390.6 -148.6,394.9 			"/>
			<g id="XMLID_436_">
				<polygon id="XMLID_438_" class="st2" points="-153.5,394.8 -148.6,394.9 -142.7,408 				"/>
				<polygon id="XMLID_437_" class="st16" points="-142.7,408 -148.6,394.9 -143.6,395 				"/>
			</g>
			<polygon id="XMLID_435_" class="st2" points="-153.5,394.8 -173.3,396.2 -173.1,394.5 			"/>
			<polygon id="XMLID_434_" class="st8" points="-173.1,394.5 -173.3,396.2 -182,394.4 			"/>
			<polygon id="XMLID_433_" class="st9" points="-173.1,394.5 -182,394.4 -172.1,380.8 			"/>
			<polygon id="XMLID_432_" class="st1" points="-182,394.4 -173.3,396.2 -179,409.8 			"/>
			<polygon id="XMLID_431_" class="st10" points="-179,409.8 -173.3,396.2 -178,414.9 			"/>
			<polygon id="XMLID_430_" class="st10" points="-182,394.4 -179,409.8 -181.2,415.2 			"/>
			<polygon id="XMLID_429_" class="st1" points="-181.2,415.2 -179,409.8 -178,414.9 			"/>
			<polygon id="XMLID_428_" class="st5" points="-181.2,415.2 -178,414.9 -176.5,418.1 			"/>
			<polygon id="XMLID_427_" class="st6" points="-181.2,415.2 -176.5,418.1 -173.4,425 -179.9,417.3 			"/>
			<polygon id="XMLID_426_" class="st6" points="-176.5,418.1 -178,414.9 -171.7,421.1 			"/>
			<polygon id="XMLID_425_" class="st5" points="-176.5,418.1 -171.7,421.1 -173.4,425 			"/>
			<polygon id="XMLID_424_" class="st21" points="-173.4,425 -171.7,421.1 -167.6,425 			"/>
			<polygon id="XMLID_423_" class="st22" points="-167.6,425 -171.7,421.1 -165.2,418.6 			"/>
			<polygon id="XMLID_422_" class="st21" points="-167.6,425 -165.2,418.6 -162.3,420.6 			"/>
			<polygon id="XMLID_421_" class="st12" points="-162.3,420.6 -165.2,418.6 -161.4,414.8 			"/>
			<polygon id="XMLID_420_" class="st23" points="-161.4,414.8 -165.2,418.6 -165.4,412.6 			"/>
			<polygon id="XMLID_419_" class="st24" points="-161.4,414.8 -165.4,412.6 -165.7,408.6 			"/>
			<polygon id="XMLID_418_" class="st23" points="-165.7,408.6 -166.8,411.8 -171,408.1 			"/>
			<polygon id="XMLID_417_" class="st12" points="-166.8,411.8 -165.7,408.6 -165.4,412.6 			"/>
			<polygon id="XMLID_416_" class="st21" points="-171,408.1 -166.8,411.8 -170.6,410.7 			"/>
			<polygon id="XMLID_415_" class="st22" points="-170.6,410.7 -166.8,411.8 -168.1,412.1 			"/>
			<polygon id="XMLID_414_" class="st6" points="-168.5,414.6 -168.1,412.1 -166.8,411.8 -167.5,415.7 			"/>
			<polygon id="XMLID_413_" class="st25" points="-170.6,410.7 -173.1,412.6 -171,408.1 			"/>
			<polygon id="XMLID_412_" class="st22" points="-171,408.1 -173.1,412.6 -174.9,413.5 			"/>
			<polygon id="XMLID_411_" class="st4" points="-174.9,413.5 -173.1,412.6 -171.5,415 			"/>
			<polygon id="XMLID_410_" class="st6" points="-174.9,413.5 -171.5,415 -171.8,417.2 			"/>
			<polygon id="XMLID_409_" class="st5" points="-171.8,417.2 -171.5,415 -168.5,414.6 -167.5,415.7 			"/>
			<path id="XMLID_406_" class="st10" d="M-131.7,389.8l-2.4-2.7l2.9-2.5l2.1,1.9v1.7L-131.7,389.8L-131.7,389.8z M-132.2,387.1
				l1,0.8l0.7-0.7l-0.1-1h-1.6V387.1z"/>
			<polygon id="XMLID_405_" class="st26" points="-131.2,387.9 -132.2,387.1 -132.1,386.2 -130.6,386.3 -130.5,387.2 			"/>
			<path id="XMLID_402_" class="st27" d="M-134.2,387.1l2.9-2.5l2.1,1.9v1.7l-2.7,1.7L-134.2,387.1L-134.2,387.1z M-135.4,384.9
				l-0.3,4l3.6,2.4l3.9-1.9l0.9-3.5l-2.9-3.2L-135.4,384.9z"/>
		</g>
		<g id="XMLID_340_">
			<g id="XMLID_398_">
				<polygon id="XMLID_400_" class="st2" points="-165.4,394.6 -160.5,394.6 -154.7,409.7 				"/>
				<polygon id="XMLID_399_" class="st3" points="-154.7,409.7 -160.5,394.6 -155.5,394.7 				"/>
			</g>
			<polygon id="XMLID_397_" class="st4" points="-127.1,380.4 -149.4,376 -128.7,375.7 -127,380.2 			"/>
			<polygon id="XMLID_396_" class="st5" points="-128.7,375.7 -149.4,376 -140.9,368.6 			"/>
			<polygon id="XMLID_395_" class="st6" points="-140.9,368.6 -149.4,376 -156.2,371.8 			"/>
			<polygon id="XMLID_394_" class="st7" points="-149.4,376 -127.1,380.4 -127.2,386 -130.1,382.8 			"/>
			<polygon id="XMLID_393_" class="st8" points="-149.4,376 -130.1,382.8 -135.4,384.9 			"/>
			<polygon id="XMLID_392_" class="st9" points="-149.4,376 -135.4,384.9 -135.6,388.9 			"/>
			<polygon id="XMLID_391_" class="st10" points="-149.4,376 -135.6,388.9 -141,391.6 			"/>
			<polygon id="XMLID_390_" class="st11" points="-141,391.6 -135.6,388.9 -132.8,396.1 -140.8,391.9 			"/>
			<polygon id="XMLID_389_" class="st2" points="-132.8,396.1 -135.6,388.9 -132,391.3 			"/>
			<polygon id="XMLID_388_" class="st12" points="-132.8,396.1 -132,391.3 -126,396.6 			"/>
			<polygon id="XMLID_387_" class="st13" points="-126,396.6 -132,391.3 -128.1,389.5 			"/>
			<polygon id="XMLID_386_" class="st14" points="-126,396.6 -128.1,389.5 -124.2,388 			"/>
			<polygon id="XMLID_385_" class="st15" points="-124.2,388 -128.1,389.5 -127.2,386 			"/>
			<polygon id="XMLID_384_" class="st9" points="-124.2,388 -127.2,386 -127.1,380.4 -127,380.4 			"/>
			<polygon id="XMLID_383_" class="st16" points="-149.4,376 -141,391.6 -141.2,391.7 -161.8,376.3 			"/>
			<polygon id="XMLID_382_" class="st17" points="-161.8,376.3 -141.2,391.7 -143.6,395 -162.3,376.5 			"/>
			<polygon id="XMLID_381_" class="st18" points="-162.3,376.5 -143.6,395 -148.6,394.9 -155.5,390.6 			"/>
			<polygon id="XMLID_380_" class="st19" points="-162.3,376.5 -155.5,390.6 -171.9,380.5 			"/>
			<polygon id="XMLID_379_" class="st20" points="-171.9,380.5 -155.5,390.6 -153.5,394.8 -173.1,394.5 -172.1,380.8 			"/>
			<polygon id="XMLID_378_" class="st17" points="-153.5,394.8 -155.5,390.6 -148.6,394.9 			"/>
			<g id="XMLID_375_">
				<polygon id="XMLID_377_" class="st2" points="-153.5,394.8 -148.6,394.9 -142.7,408 				"/>
				<polygon id="XMLID_376_" class="st16" points="-142.7,408 -148.6,394.9 -143.6,395 				"/>
			</g>
			<polygon id="XMLID_374_" class="st2" points="-153.5,394.8 -173.3,396.2 -173.1,394.5 			"/>
			<polygon id="XMLID_373_" class="st8" points="-173.1,394.5 -173.3,396.2 -182,394.4 			"/>
			<polygon id="XMLID_372_" class="st9" points="-173.1,394.5 -182,394.4 -172.1,380.8 			"/>
			<polygon id="XMLID_371_" class="st1" points="-182,394.4 -173.3,396.2 -179,409.8 			"/>
			<polygon id="XMLID_370_" class="st10" points="-179,409.8 -173.3,396.2 -178,414.9 			"/>
			<polygon id="XMLID_369_" class="st10" points="-182,394.4 -179,409.8 -181.2,415.2 			"/>
			<polygon id="XMLID_368_" class="st1" points="-181.2,415.2 -179,409.8 -178,414.9 			"/>
			<polygon id="XMLID_367_" class="st5" points="-181.2,415.2 -178,414.9 -176.5,418.1 			"/>
			<polygon id="XMLID_366_" class="st6" points="-181.2,415.2 -176.5,418.1 -173.4,425 -179.9,417.3 			"/>
			<polygon id="XMLID_365_" class="st6" points="-176.5,418.1 -178,414.9 -171.7,421.1 			"/>
			<polygon id="XMLID_364_" class="st5" points="-176.5,418.1 -171.7,421.1 -173.4,425 			"/>
			<polygon id="XMLID_363_" class="st21" points="-173.4,425 -171.7,421.1 -167.6,425 			"/>
			<polygon id="XMLID_362_" class="st22" points="-167.6,425 -171.7,421.1 -165.2,418.6 			"/>
			<polygon id="XMLID_361_" class="st21" points="-167.6,425 -165.2,418.6 -162.3,420.6 			"/>
			<polygon id="XMLID_360_" class="st12" points="-162.3,420.6 -165.2,418.6 -161.4,414.8 			"/>
			<polygon id="XMLID_359_" class="st23" points="-161.4,414.8 -165.2,418.6 -165.4,412.6 			"/>
			<polygon id="XMLID_358_" class="st24" points="-161.4,414.8 -165.4,412.6 -165.7,408.6 			"/>
			<polygon id="XMLID_357_" class="st23" points="-165.7,408.6 -166.8,411.8 -171,408.1 			"/>
			<polygon id="XMLID_356_" class="st12" points="-166.8,411.8 -165.7,408.6 -165.4,412.6 			"/>
			<polygon id="XMLID_355_" class="st21" points="-171,408.1 -166.8,411.8 -170.6,410.7 			"/>
			<polygon id="XMLID_354_" class="st22" points="-170.6,410.7 -166.8,411.8 -168.1,412.1 			"/>
			<polygon id="XMLID_353_" class="st6" points="-168.5,414.6 -168.1,412.1 -166.8,411.8 -167.5,415.7 			"/>
			<polygon id="XMLID_352_" class="st25" points="-170.6,410.7 -173.1,412.6 -171,408.1 			"/>
			<polygon id="XMLID_351_" class="st22" points="-171,408.1 -173.1,412.6 -174.9,413.5 			"/>
			<polygon id="XMLID_350_" class="st4" points="-174.9,413.5 -173.1,412.6 -171.5,415 			"/>
			<polygon id="XMLID_349_" class="st6" points="-174.9,413.5 -171.5,415 -171.8,417.2 			"/>
			<polygon id="XMLID_348_" class="st5" points="-171.8,417.2 -171.5,415 -168.5,414.6 -167.5,415.7 			"/>
			<path id="XMLID_345_" class="st10" d="M-131.7,389.8l-2.4-2.7l2.9-2.5l2.1,1.9v1.7L-131.7,389.8L-131.7,389.8z M-132.2,387.1
				l1,0.8l0.7-0.7l-0.1-1h-1.6V387.1z"/>
			<polygon id="XMLID_344_" class="st26" points="-131.2,387.9 -132.2,387.1 -132.1,386.2 -130.6,386.3 -130.5,387.2 			"/>
			<path id="XMLID_341_" class="st27" d="M-134.2,387.1l2.9-2.5l2.1,1.9v1.7l-2.7,1.7L-134.2,387.1L-134.2,387.1z M-135.4,384.9
				l-0.3,4l3.6,2.4l3.9-1.9l0.9-3.5l-2.9-3.2L-135.4,384.9z"/>
		</g>
		<g id="XMLID_14_">
			<g id="XMLID_337_">
				<polygon id="XMLID_339_" class="st28" points="-165.4,394.6 -160.5,394.6 -154.7,409.7 				"/>
				<polygon id="XMLID_338_" class="st29" points="-154.7,409.7 -160.5,394.6 -155.5,394.7 				"/>
			</g>
			<polygon id="XMLID_336_" class="st17" points="-127.1,380.4 -149.4,376 -128.7,375.7 -127,380.2 			"/>
			<polygon id="XMLID_335_" class="st21" points="-128.7,375.7 -149.4,376 -140.9,368.6 			"/>
			<polygon id="XMLID_334_" class="st22" points="-140.9,368.6 -149.4,376 -164.5,370.6 			"/>
			<polygon id="XMLID_333_" class="st30" points="-149.4,376 -127.1,380.4 -127.2,386 -130.1,382.8 			"/>
			<polygon id="XMLID_332_" class="st17" points="-149.4,376 -130.1,382.8 -135.4,384.9 			"/>
			<polygon id="XMLID_331_" class="st30" points="-149.4,376 -135.4,384.9 -135.6,388.9 			"/>
			<polygon id="XMLID_330_" class="st17" points="-149.4,376 -135.6,388.9 -141,391.6 			"/>
			<polygon id="XMLID_329_" class="st30" points="-141,391.6 -135.6,388.9 -132.8,396.1 -140.8,391.9 			"/>
			<polygon id="XMLID_328_" class="st17" points="-132.8,396.1 -135.6,388.9 -132,391.3 			"/>
			<polygon id="XMLID_327_" class="st31" points="-132.8,396.1 -132,391.3 -126,396.6 			"/>
			<polygon id="XMLID_326_" class="st30" points="-126,396.6 -132,391.3 -128.1,389.5 			"/>
			<polygon id="XMLID_325_" class="st14" points="-126,396.6 -128.1,389.5 -124.2,388 			"/>
			<polygon id="XMLID_163_" class="st30" points="-124.2,388 -128.1,389.5 -127.2,386 			"/>
			<polygon id="XMLID_162_" class="st17" points="-124.2,388 -127.2,386 -127.1,380.4 -127,380.4 			"/>
			<polygon id="XMLID_161_" class="st20" points="-149.4,376 -141,391.6 -141.2,391.7 -161.8,376.3 			"/>
			<polygon id="XMLID_160_" class="st3" points="-161.8,376.3 -141.2,391.7 -143.6,395 -162.3,376.5 			"/>
			<polygon id="XMLID_153_" class="st20" points="-162.3,376.5 -143.6,395 -148.6,394.9 -155.5,390.6 			"/>
			<polygon id="XMLID_152_" class="st28" points="-162.3,376.5 -155.5,390.6 -171.9,380.5 			"/>
			<polygon id="XMLID_151_" class="st29" points="-171.9,380.5 -155.5,390.6 -153.5,394.8 -173.1,394.5 -172.1,380.8 			"/>
			<polygon id="XMLID_149_" class="st3" points="-153.5,394.8 -155.5,390.6 -148.6,394.9 			"/>
			<g id="XMLID_145_">
				<polygon id="XMLID_148_" class="st28" points="-153.5,394.8 -148.6,394.9 -142.7,408 				"/>
				<polygon id="XMLID_147_" class="st32" points="-142.7,408 -148.6,394.9 -143.6,395 				"/>
			</g>
			<polygon id="XMLID_140_" class="st33" points="-153.5,394.8 -173.3,396.2 -173.1,394.5 			"/>
			<polygon id="XMLID_139_" class="st34" points="-173.1,394.5 -173.3,396.2 -182,394.4 			"/>
			<polygon id="XMLID_138_" class="st28" points="-173.1,394.5 -182,394.4 -172.1,380.8 			"/>
			<polygon id="XMLID_135_" class="st35" points="-182,394.4 -173.3,396.2 -179,409.8 			"/>
			<polygon id="XMLID_132_" class="st34" points="-179,409.8 -173.3,396.2 -178,414.9 			"/>
			<polygon id="XMLID_131_" class="st34" points="-182,394.4 -179,409.8 -181.2,415.2 			"/>
			<polygon id="XMLID_130_" class="st35" points="-181.2,415.2 -179,409.8 -178,414.9 			"/>
			<polygon id="XMLID_129_" class="st34" points="-181.2,415.2 -178,414.9 -176.5,418.1 			"/>
			<polygon id="XMLID_127_" class="st35" points="-181.2,415.2 -176.5,418.1 -173.4,425 -179.9,417.3 			"/>
			<polygon id="XMLID_126_" class="st6" points="-176.5,418.1 -178,414.9 -171.7,421.1 			"/>
			<polygon id="XMLID_125_" class="st34" points="-176.5,418.1 -171.7,421.1 -173.4,425 			"/>
			<polygon id="XMLID_124_" class="st21" points="-173.4,425 -171.7,421.1 -167.6,425 			"/>
			<polygon id="XMLID_123_" class="st22" points="-167.6,425 -171.7,421.1 -165.2,418.6 			"/>
			<polygon id="XMLID_97_" class="st21" points="-167.6,425 -165.2,418.6 -162.3,420.6 			"/>
			<polygon id="XMLID_72_" class="st21" points="-162.3,420.6 -165.2,418.6 -161.4,414.8 			"/>
			<polygon id="XMLID_71_" class="st22" points="-161.4,414.8 -165.2,418.6 -165.4,412.6 			"/>
			<polygon id="XMLID_69_" class="st21" points="-161.4,414.8 -165.4,412.6 -165.7,408.6 			"/>
			<polygon id="XMLID_67_" class="st22" points="-165.7,408.6 -166.8,411.8 -171,408.1 			"/>
			<polygon id="XMLID_66_" class="st36" points="-166.8,411.8 -165.7,408.6 -165.4,412.6 			"/>
			<polygon id="XMLID_59_" class="st21" points="-171,408.1 -166.8,411.8 -170.6,410.7 			"/>
			<polygon id="XMLID_58_" class="st22" points="-170.6,410.7 -166.8,411.8 -168.1,412.1 			"/>
			<polygon id="XMLID_57_" class="st6" points="-168.5,414.6 -168.1,412.1 -166.8,411.8 -167.5,415.7 			"/>
			<polygon id="XMLID_56_" class="st25" points="-170.6,410.7 -173.1,412.6 -171,408.1 			"/>
			<polygon id="XMLID_55_" class="st22" points="-171,408.1 -173.1,412.6 -174.9,413.5 			"/>
			<polygon id="XMLID_54_" class="st4" points="-174.9,413.5 -173.1,412.6 -171.5,415 			"/>
			<polygon id="XMLID_38_" class="st6" points="-174.9,413.5 -171.5,415 -171.8,417.2 			"/>
			<polygon id="XMLID_37_" class="st5" points="-171.8,417.2 -171.5,415 -168.5,414.6 -167.5,415.7 			"/>
			<path id="XMLID_22_" class="st10" d="M-131.7,389.8l-2.4-2.7l2.9-2.5l2.1,1.9v1.7L-131.7,389.8L-131.7,389.8z M-132.2,387.1
				l1,0.8l0.7-0.7l-0.1-1h-1.6V387.1z"/>
			<polygon id="XMLID_21_" class="st26" points="-131.2,387.9 -132.2,387.1 -132.1,386.2 -130.6,386.3 -130.5,387.2 			"/>
			<path id="XMLID_15_" class="st26" d="M-134.2,387.1l2.9-2.5l2.1,1.9v1.7l-2.7,1.7L-134.2,387.1L-134.2,387.1z M-135.4,384.9
				l-0.3,4l3.6,2.4l3.9-1.9l0.9-3.5l-2.9-3.2L-135.4,384.9z"/>
		</g>
	</g>
</g>
</svg>
