<?xml version="1.0" encoding="utf-8"?>
<!-- Generator: Adobe Illustrator 19.0.0, SVG Export Plug-In . SVG Version: 6.00 Build 0)  -->
<svg version="1.1" id="svg-logo" xmlns="http://www.w3.org/2000/svg" xmlns:xlink="http://www.w3.org/1999/xlink" x="0px" y="0px"
	 viewBox="-197 288.8 216.2 216.2" style="enable-background:new -197 288.8 216.2 216.2;" xml:space="preserve">
<style type="text/css">
	.st5{fill:#51B748;}
</style>
<circle id="XMLID_64_" class="st5" cx="-88.9" cy="397" r="98.2"/>
<path id="XMLID_261_" d="M-13,320.1c-20.4-20.2-48.5-31.6-76.9-31.3c-59.2,0.6-107.3,49.2-107.1,108.3c0.1,29.2,11.4,56.4,31.8,76.6
	s47.7,31.3,76.9,31.3c0.1,0,0.2,0,0.2,0c28.6-0.1,55.5-11.3,75.8-31.8c20.4-20.6,31.6-47.9,31.5-76.9C19,367.4,7.6,340.3-13,320.1z
	 M5.2,397.4C5.1,449-37.4,491-89.6,491c-0.1,0-0.1,0-0.2,0c-51.4-0.1-93.1-42.4-93.1-94.2c0-25.2,9.8-48.8,27.6-66.4
	c17.8-17.7,41.5-27.4,66.7-27.4h0.1c24.7,0,48.1,9.8,65.9,27.6C-4.6,348.5,5.2,372.3,5.2,397.4z"/>
<g id="XMLID_59_">
	<path d="M-81.1,320.6c0-1.3,1-2.2,2.3-2.2c18.6,0.7,41.5,13.9,54.3,30.3c2,2.6,1.8,6.4-0.4,8.9s-6,2.9-9.1,2.6
		c-3.6-0.5-6.1-3.8-8.5-6.2c-1.9-2-4-3.9-6.3-5.7c-1.8-1.5-3.9-3.2-6.1-4.1c-0.3-0.1-0.6-0.2-0.9-0.2c-6.1-0.6-8.7,3.1-8.7,6.7
		v102.9c0,1.5,1.5,2.6,2.9,2.1c14.1-5,30.2-22.5,34.1-38.4c0.4-1.4-0.7-2.7-2.1-2.7h-15.9c-1.2,0-2.2-1-2.2-2.2c0-4.2,0-8.3,0-12.5
		c0-1.2,0.9-2.2,2.2-2.2c6.3,0,24.5-0.1,35.2-0.1c1.1,0,2,0.8,2.2,1.8c5,33.5-34.8,77.1-70.6,78.1c-1.2,0-2.3-0.9-2.3-2.2
		L-81.1,320.6z"/>
</g>
<g id="XMLID_58_">
	<path d="M-98.8,477.2c-41.2-5.1-68.3-41.9-68.7-73.9c0-1.2,1-2.2,2.2-2.2h11.8c1.1,0,2,0.8,2.2,1.9c1.3,10.9,4.8,21.5,10.9,30.6
		c3.5,5,7.7,9.5,12.5,13.4c3.6,2.9,8.8,5.9,12.7,1.9c2.3-2.3,2-5.5,2-8.5c0-1.8,0-3.7,0-5.5c0-5.4,0-10.8,0-16.2
		c0-6.7,0-13.4,0-20.1c0-6.8,0-13.5,0-20.3c0-5.5,0-11.1,0-16.6c0-3,0-6.1,0-9.2v-3.2c0-0.6-0.3-1.2-0.7-1.7
		c-4.3-3.9-7.4-3.3-10.4-1.7c-1.8,0.9-3.2,2.6-5.1,3.1c-5.5,1.7-15.5,0.4-12.7-9.7c0.1-0.4,0.4-0.7,0.6-1
		c11.8-10.7,25.9-17.3,42.6-19.9c1.3-0.2,2.6,0.8,2.6,2.1V475C-96.4,476.4-97.5,477.4-98.8,477.2z"/>
</g>
</svg>
