<?xml version="1.0" encoding="utf-8"?>
<svg version="1.1" xmlns="http://www.w3.org/2000/svg" xmlns:xlink="http://www.w3.org/1999/xlink" x="0px" y="0px"
	 viewBox="0 0 216.2 216.2" style="enable-background:new 0 0 216.2 216.2;" xml:space="preserve">
<style type="text/css">
	.st5{fill:#51B748;}
</style>
<g id="Layer_3">
	<circle id="XMLID_64_" class="st5" cx="108.1" cy="108.2" r="98.2"/>
	<path id="XMLID_261_" d="M184,31.3C163.6,11.1,135.5-0.3,107.1,0C47.9,0.6-0.2,49.2,0,108.3c0.1,29.2,11.4,56.4,31.8,76.6
		c20.4,20.2,47.7,31.3,76.9,31.3c0.1,0,0.2,0,0.2,0c28.6-0.1,55.5-11.3,75.8-31.8c20.4-20.6,31.6-47.9,31.5-76.9
		C216,78.6,204.6,51.5,184,31.3z M202.2,108.6c-0.1,51.6-42.6,93.6-94.8,93.6c-0.1,0-0.1,0-0.2,0c-51.4-0.1-93.1-42.4-93.1-94.2
		c0-25.2,9.8-48.8,27.6-66.4c17.8-17.7,41.5-27.4,66.7-27.4c0,0,0.1,0,0.1,0c24.7,0,48.1,9.8,65.9,27.6
		C192.4,59.7,202.2,83.5,202.2,108.6z"/>
	<g id="XMLID_59_">
		<path d="M116.5,24.8c0-1.4,1.1-2.4,2.5-2.4c20.3,0.8,45.3,15.2,59.2,33.1c2.2,2.8,2,7-0.4,9.7c-2.4,2.7-6.5,3.2-9.9,2.8
			c-3.9-0.5-6.7-4.1-9.3-6.8c-2.1-2.2-4.4-4.3-6.9-6.2c-2-1.6-4.3-3.5-6.7-4.5c-0.3-0.1-0.7-0.2-1-0.2c-6.6-0.6-9.5,3.4-9.5,7.3
			l0,112.2c0,1.6,1.6,2.8,3.2,2.3c15.4-5.4,32.9-24.5,37.2-41.9c0.4-1.5-0.8-2.9-2.3-2.9h-17.3c-1.3,0-2.4-1.1-2.4-2.4
			c0-4.6,0-9.1,0-13.6c0-1.3,1-2.4,2.4-2.4c6.9,0,26.7-0.1,38.4-0.1c1.2,0,2.2,0.9,2.4,2c5.5,36.5-37.9,84.1-77,85.2
			c-1.3,0-2.5-1-2.5-2.4L116.5,24.8z"/>
	</g>
	<g id="XMLID_58_">
		<path d="M97.2,195.6C52.3,190,22.7,149.9,22.3,115c0-1.3,1.1-2.4,2.4-2.4h12.9c1.2,0,2.2,0.9,2.4,2.1c1.4,11.9,5.2,23.5,11.9,33.4
			c3.8,5.5,8.4,10.4,13.6,14.6c3.9,3.2,9.6,6.4,13.9,2.1c2.5-2.5,2.2-6,2.2-9.3c0-2,0-4,0-6c0-5.9,0-11.8,0-17.7
			c0-7.3,0-14.6,0-21.9c0-7.4,0-14.7,0-22.1c0-6,0-12.1,0-18.1c0-3.3,0-6.7,0-10v-3.5c0-0.7-0.3-1.3-0.8-1.8
			c-4.7-4.3-8.1-3.6-11.3-1.9c-2,1-3.5,2.8-5.6,3.4c-6,1.9-16.9,0.4-13.9-10.6c0.1-0.4,0.4-0.8,0.7-1.1
			c12.9-11.7,28.3-18.9,46.5-21.7c1.4-0.2,2.8,0.9,2.8,2.3v168.4C99.8,194.7,98.6,195.8,97.2,195.6z"/>
	</g>
</g>
</svg>
